<svg width="143" height="143" viewBox="0 0 143 143" fill="none" xmlns="http://www.w3.org/2000/svg">
<g clip-path="url(#clip0)">
<path d="M142.717 92.3491C141.82 87.0509 138.404 64.7132 138.07 52.122C138.124 46.7791 136.851 43.3098 134.285 41.81C132.323 40.6635 129.773 40.8294 127.29 42.2659C125.681 43.1969 124.365 44.715 123.271 46.9368C123.064 46.6062 122.859 46.2797 122.653 45.9535C121.72 44.472 120.784 42.9483 119.879 41.4753C117.748 38.0064 115.544 34.4194 113.148 31.0139C112.839 30.5748 112.52 30.1186 112.193 29.6512C109.105 25.2379 105.605 20.2356 102.857 18.1495C99.843 15.8606 96.5932 15.2576 93.9421 16.4965C92.7979 17.031 91.8601 17.8715 91.2075 18.8998C91.0725 18.8357 90.9335 18.7746 90.7896 18.7168C87.768 17.5002 84.3345 17.7645 82.0405 19.3903C80.1042 20.7626 79.0986 22.9803 79.2045 25.6441C77.9581 26.3049 76.2883 27.5073 75.0967 29.5677C73.5835 32.1838 73.2264 35.4246 74.0304 39.2159C72.9044 40.2998 72.0893 41.5987 71.4996 42.8827C70.9096 41.5994 70.0945 40.3001 68.9677 39.2155C69.7713 35.4242 69.4143 32.1831 67.901 29.5674C66.7091 27.507 65.0393 26.3046 63.7929 25.6437C63.901 22.9829 62.895 20.7634 60.9577 19.3899C58.6643 17.7641 55.2301 17.4991 52.2077 18.716C52.0642 18.7738 51.9256 18.8349 51.7907 18.899C51.138 17.8711 50.1999 17.0302 49.056 16.4961C46.4053 15.258 43.1555 15.8603 40.1417 18.1491C37.3933 20.2356 33.8935 25.2379 30.8059 29.6512C30.479 30.1186 30.1596 30.5752 29.8506 31.0139C27.451 34.4239 25.2446 38.0158 23.1111 41.4891C22.2088 42.9576 21.2759 44.4764 20.3452 45.9535C20.1398 46.2797 19.9348 46.6062 19.7283 46.9368C18.6333 44.715 17.3183 43.1969 15.7082 42.2659C13.2251 40.8301 10.6765 40.6635 8.71413 41.81C6.14797 43.3095 4.87439 46.7787 4.92881 52.122C4.59597 64.6875 1.17926 87.0446 0.281758 92.3498C-0.256819 95.5377 -0.0279704 98.4982 0.98135 101.4C2.99776 107.205 10.9765 119.495 15.5531 126.304L18.9985 123.988C11.5132 112.851 6.24376 103.897 4.90272 100.037C4.12858 97.8109 3.95601 95.5228 4.37495 93.042C5.28513 87.6707 8.74768 64.9946 9.08089 52.1921C9.08163 52.1664 9.08163 52.1403 9.08126 52.1146C9.02163 46.8514 10.3891 45.6404 10.8099 45.3944C11.7414 44.8503 13.2043 45.6125 13.6307 45.8592C15.0407 46.6747 16.2561 48.7523 17.2453 52.0299C20.3113 63.2312 21.0045 75.1843 20.2319 86.7274C26.6553 85.4363 32.8536 90.0121 37.0318 94.4467C33.5032 90.1814 27.5852 84.8988 21.5901 85.2742C22.9635 74.6312 22.8879 63.4303 20.9214 52.8484C20.9631 52.7944 21.006 52.7411 21.0425 52.6822L21.8405 51.3993C22.5591 50.2435 23.2062 49.2029 23.8592 48.1667C24.8025 46.6695 25.7418 45.1406 26.6501 43.6621C28.7503 40.2427 30.9222 36.7071 33.2476 33.4026C33.5584 32.9606 33.8797 32.5018 34.2092 32.031C36.832 28.2826 40.4235 23.1488 42.6542 21.4551C44.3997 20.1298 46.0933 19.6926 47.3013 20.2572C48.0981 20.6292 49.2312 21.8968 47.9766 27.5234C45.2409 39.7955 37.8037 50.8999 31.3418 61.5298C38.7906 51.3494 51.4582 37.2312 52.3501 23.5349C52.4962 23.3825 53.0292 22.8614 53.7605 22.567C55.4515 21.8864 57.4247 21.9721 58.5588 22.7764C59.3483 23.3359 59.7038 24.2278 59.6461 25.5003C59.6326 25.785 59.5559 26.3303 59.5104 26.6069C59.507 26.627 59.5089 26.6467 59.5063 26.6669C59.5048 26.6665 59.5029 26.6661 59.5011 26.6654C56.8909 39.1242 51.409 50.7929 45.5979 62.0311C51.9528 51.6528 58.0016 40.8559 61.6289 29.179C63.1541 29.8745 66.5954 32.2841 64.6461 39.4358C64.6405 39.4563 64.639 39.4772 64.6341 39.4977C62.1992 48.5178 58.7378 57.2677 54.8373 65.7467C59.1936 58.2845 63.1932 50.5547 66.3952 42.5178C68.503 44.8387 68.8533 48.6677 68.8749 48.9345C69.0419 52.6695 67.9748 61.3076 59.0124 77.3379C56.3956 82.017 58.3989 85.6994 60.3367 89.2607C61.6781 91.7263 63.1988 94.5209 63.7083 98.2395C64.5943 104.706 61.1489 115.678 55.3296 124.922L58.8429 127.134C65.2361 116.979 68.8447 105.141 67.8216 97.676C67.2089 93.2048 65.4206 89.9182 63.9838 87.2771C62.0098 83.6491 61.1977 81.9365 62.6364 79.3647C67.4284 70.7929 70.0766 64.125 71.5007 59.0814C72.9245 64.1213 75.5731 70.7903 80.367 79.3651C81.8049 81.9368 80.9931 83.6491 79.0192 87.2775C77.5824 89.9182 75.7945 93.2052 75.1817 97.6763C74.1582 105.14 77.7665 116.979 84.1605 127.135L87.6737 124.923C81.8537 115.678 78.4083 104.706 79.295 98.2403C79.8045 94.5217 81.3248 91.727 82.6663 89.2615C84.6036 85.7002 86.607 82.0181 83.9909 77.3394C75.0285 61.3095 73.9614 52.671 74.1284 48.9356C74.15 48.6688 74.5004 44.8395 76.6081 42.5189C79.8101 50.5558 83.8094 58.286 88.1661 65.7478C84.2656 57.2689 80.8042 48.5189 78.3692 39.4988C78.3643 39.4783 78.3628 39.4574 78.3573 39.4369C76.4024 32.2677 79.8656 29.8633 81.3729 29.1782C85.001 40.8555 91.0498 51.6524 97.4043 62.0326C91.5929 50.7948 83.9879 30.7347 83.3565 25.504C83.2033 24.2367 83.6543 23.3374 84.4441 22.7775C85.5783 21.9732 87.5507 21.8875 89.2421 22.5685C89.9823 22.8663 90.522 23.3985 90.6521 23.5342C91.544 37.2316 104.21 51.3501 111.66 61.5313C104.815 50.2692 94.3256 36.0881 94.3513 22.2427C94.351 22.2427 94.3506 22.2423 94.3502 22.2423C94.4199 21.3754 94.9294 20.6195 95.7021 20.2587C96.9101 19.6933 98.6037 20.1312 100.349 21.4566C102.579 23.1499 106.171 28.2837 108.794 32.0321C109.123 32.5029 109.445 32.9621 109.755 33.4041C112.078 36.7042 114.247 40.2349 116.344 43.6494C117.255 45.1324 118.197 46.6662 119.143 48.1678C119.782 49.1805 120.414 50.1977 121.113 51.3225L121.959 52.6833C121.996 52.7422 122.038 52.7955 122.08 52.8496C120.114 63.431 120.039 74.6327 121.412 85.2753C115.417 84.9003 109.499 90.1825 105.97 94.4479C110.149 90.0129 116.347 85.4374 122.77 86.7285C121.998 75.1869 122.69 63.2346 125.755 52.0348C126.745 48.7545 127.961 46.6759 129.371 45.8603C129.798 45.6136 131.26 44.851 132.192 45.3956C132.613 45.6412 133.98 46.8525 133.921 52.1153C133.92 52.141 133.921 52.1671 133.921 52.1928C134.255 65.021 137.717 87.6778 138.626 93.0423C139.045 95.5239 138.872 97.812 138.097 100.038C136.757 103.898 131.487 112.852 124.002 123.989L127.447 126.305C132.024 119.495 140.003 107.205 142.019 101.402C143.026 98.4989 143.256 95.5384 142.717 92.3491Z" fill="white"/>
</g>
<defs>
<clipPath id="clip0">
<rect width="143" height="143" fill="white"/>
</clipPath>
</defs>
</svg>
