<svg width="54" height="54" viewBox="0 0 54 54" fill="none" xmlns="http://www.w3.org/2000/svg">
<g clip-path="url(#clip0)" filter="url(#filter0_d)">
<path fill-rule="evenodd" clip-rule="evenodd" d="M26.9379 16.2028C30.8713 16.2028 34.0594 19.3909 34.0594 23.3243C34.0594 27.2577 30.8713 30.4458 26.9379 30.4458C23.0045 30.4458 19.8164 27.2577 19.8164 23.3243C19.8164 19.3909 23.0045 16.2028 26.9379 16.2028ZM21.6244 10.3924H32.3894C36.4332 10.3924 39.7318 13.6634 39.7318 17.6382V28.3756C39.7318 32.3642 36.4332 35.6214 32.3894 35.6214H21.6244C17.5806 35.6214 14.282 32.3642 14.282 28.3756V17.6382C14.282 13.6496 17.5944 10.3924 21.6244 10.3924ZM33.8248 15.2091C34.4596 15.2091 34.9841 15.7198 34.9841 16.3684C34.9841 17.0033 34.4734 17.5278 33.8248 17.5278C33.1899 17.5278 32.6655 17.0171 32.6655 16.3684C32.6655 15.7336 33.1761 15.2091 33.8248 15.2091ZM22.5077 12.4488H31.5062C34.8875 12.4488 37.6478 15.1953 37.6478 18.5629V27.6166C37.6478 30.9841 34.8875 33.7306 31.5062 33.7306H22.5077C19.1263 33.7306 16.366 30.9841 16.366 27.6166V18.5629C16.366 15.1953 19.1263 12.4488 22.5077 12.4488ZM27.0069 0C33.3555 0 39.1107 2.58086 43.2787 6.73507C47.4467 10.9031 50.0138 16.6445 50.0138 23.0069C50.0138 29.3555 47.4329 35.1107 43.2787 39.2787C39.1107 43.4467 33.3693 46.0138 27.0069 46.0138C20.6583 46.0138 14.9031 43.4329 10.7351 39.2787C6.56706 35.1107 4 29.3693 4 23.0069C4 16.6583 6.58086 10.9031 10.7351 6.73507C14.9031 2.56706 20.6445 0 27.0069 0ZM42.0918 7.90819C38.2274 4.0438 32.9001 1.65617 27.0069 1.65617C21.1137 1.65617 15.7726 4.0438 11.922 7.90819C8.05761 11.7726 5.66997 17.0999 5.66997 22.9931C5.66997 28.8863 8.05761 34.2274 11.922 38.078C15.7864 41.9424 21.1137 44.33 27.0069 44.33C32.9001 44.33 38.2412 41.9424 42.0918 38.078C45.9562 34.2136 48.3438 28.8863 48.3438 22.9931C48.3438 17.0999 45.9562 11.7588 42.0918 7.90819ZM26.9379 18.5905C29.5326 18.5905 31.6442 20.7021 31.6442 23.2967C31.6442 25.8914 29.5326 28.003 26.9379 28.003C24.3294 28.003 22.2316 25.8914 22.2316 23.2967C22.2316 20.7021 24.3432 18.5905 26.9379 18.5905Z" fill="white"/>
</g>
<defs>
<filter id="filter0_d" x="0" y="0" width="54" height="54" filterUnits="userSpaceOnUse" color-interpolation-filters="sRGB">
<feFlood flood-opacity="0" result="BackgroundImageFix"/>
<feColorMatrix in="SourceAlpha" type="matrix" values="0 0 0 0 0 0 0 0 0 0 0 0 0 0 0 0 0 0 127 0"/>
<feOffset dy="4"/>
<feGaussianBlur stdDeviation="2"/>
<feColorMatrix type="matrix" values="0 0 0 0 0 0 0 0 0 0 0 0 0 0 0 0 0 0 0.25 0"/>
<feBlend mode="normal" in2="BackgroundImageFix" result="effect1_dropShadow"/>
<feBlend mode="normal" in="SourceGraphic" in2="effect1_dropShadow" result="shape"/>
</filter>
<clipPath id="clip0">
<rect width="46" height="46" fill="white" transform="translate(4)"/>
</clipPath>
</defs>
</svg>
