<svg width="50" height="50" viewBox="0 0 50 50" fill="none" xmlns="http://www.w3.org/2000/svg">
<path d="M50 25C50 38.8071 38.8071 50 25 50C11.1929 50 0 38.8071 0 25C0 11.1929 11.1929 0 25 0C38.8071 0 50 11.1929 50 25ZM1.95151 25C1.95151 37.7293 12.2707 48.0485 25 48.0485C37.7293 48.0485 48.0485 37.7293 48.0485 25C48.0485 12.2707 37.7293 1.95151 25 1.95151C12.2707 1.95151 1.95151 12.2707 1.95151 25Z" fill="#E6C9CA"/>
<path d="M30 21L34 25M34 25L30 29M34 25H16" stroke="black" stroke-width="2" stroke-linecap="round" stroke-linejoin="round"/>
</svg>
