<svg width="54" height="54" viewBox="0 0 54 54" fill="none" xmlns="http://www.w3.org/2000/svg">
<g filter="url(#filter0_d)">
<path d="M27 46C14.35 46 4 35.65 4 23C4 10.35 14.35 0 27 0C39.65 0 50 10.35 50 23C50 35.65 39.65 46 27 46ZM27 2.3C15.615 2.3 6.3 11.615 6.3 23C6.3 34.385 15.615 43.7 27 43.7C38.385 43.7 47.7 34.385 47.7 23C47.7 11.615 38.385 2.3 27 2.3Z" fill="white"/>
<path fill-rule="evenodd" clip-rule="evenodd" d="M23.205 27.715L33.9 18.055C34.36 17.595 33.785 17.48 33.21 17.825L20.1 26.105L14.465 24.38C13.2 24.035 13.2 23.115 14.695 22.54L36.89 14.03C37.925 13.57 38.845 14.26 38.5 15.87L34.705 33.695C34.475 34.96 33.67 35.305 32.635 34.73L26.885 30.475L24.125 33.12C23.78 33.465 23.32 33.465 23.32 33.12L23.205 27.715Z" fill="white"/>
</g>
<defs>
<filter id="filter0_d" x="0" y="0" width="54" height="54" filterUnits="userSpaceOnUse" color-interpolation-filters="sRGB">
<feFlood flood-opacity="0" result="BackgroundImageFix"/>
<feColorMatrix in="SourceAlpha" type="matrix" values="0 0 0 0 0 0 0 0 0 0 0 0 0 0 0 0 0 0 127 0"/>
<feOffset dy="4"/>
<feGaussianBlur stdDeviation="2"/>
<feColorMatrix type="matrix" values="0 0 0 0 0 0 0 0 0 0 0 0 0 0 0 0 0 0 0.25 0"/>
<feBlend mode="normal" in2="BackgroundImageFix" result="effect1_dropShadow"/>
<feBlend mode="normal" in="SourceGraphic" in2="effect1_dropShadow" result="shape"/>
</filter>
</defs>
</svg>
