<svg width="995" height="720" viewBox="0 0 995 720" fill="none" xmlns="http://www.w3.org/2000/svg">
<path d="M0 0H939L901.05 47.517C886.713 65.4689 874.027 84.6801 863.149 104.916L853.199 123.426C839.826 148.303 830.671 175.226 826.108 203.099L822.276 226.51C814.382 274.731 824.914 324.157 851.779 364.972V364.972C858.578 375.3 866.345 384.958 874.976 393.813L925.686 445.84C934.549 454.933 942.688 464.703 950.031 475.062L964.57 495.571C984.367 523.499 995 556.887 995 591.12V591.12C995 627.672 982.879 663.192 960.535 692.119L940.479 718.086C939.546 719.293 938.107 720 936.581 720H0V0Z" fill="#E6C9CA"/>
</svg>
