<svg width="1100" height="1444" viewBox="0 0 1100 1444" fill="none" xmlns="http://www.w3.org/2000/svg">
<path d="M383.98 0H40.3828C-17.5368 0 -74.9278 11.0171 -128.73 32.464C-215.851 67.192 -290.167 127.899 -341.582 206.337L-382.29 268.442C-528.918 510.938 -528.661 693.759 -553.305 766.408C-584.109 857.219 -413.095 1295.31 -382.29 1316.27C-351.486 1337.22 664.12 1444 732.147 1444C763.682 1444 799.247 1438.41 834.5 1430.19C962.163 1400.41 1077.26 1301.36 1098.5 1172C1107.07 1119.77 1068.05 1065.52 1028.57 1025.45C984.489 980.705 941.872 932.938 916.726 875.374L909.23 858.215C887.261 807.923 881.061 752.151 891.448 698.262C897.079 669.047 907.478 640.957 922.228 615.117L925.718 609.004C972.003 527.918 979.778 430.432 946.929 343.035L940.062 324.763C913.977 255.361 866.838 195.856 805.247 154.581L732.912 106.106C629.69 36.9325 508.237 0 383.98 0Z" fill="#E6C9CA"/>
</svg>
